{
  "asset": {
    "version": "2.0",
    "generator": "SMARTFLOW Extractor"
  },
  "scene": 0,
  "scenes": [
    {
      "nodes": [
        0
      ]
    }
  ],
  "nodes": [
    {
      "mesh": 0,
      "name": "ambulance"
    }
  ],
  "meshes": [
    {
      "primitives": [
        {
          "attributes": {
            "POSITION": 0,
            "NORMAL": 1,
            "TEXCOORD_0": 2
          },
          "indices": 3,
          "material": 0
        }
      ],
      "name": "ambulance"
    }
  ],
  "accessors": [
    {
      "bufferView": 0,
      "byteOffset": 0,
      "componentType": 5126,
      "count": 1863,
      "type": "VEC3",
      "min": [
        -2.5887917078315468,
        -0.9731778253258724,
        -1.4687388785667324
      ],
      "max": [
        4.219968219918087,
        1.9762812525663707,
        1.464851056736002
      ]
    },
    {
      "bufferView": 1,
      "byteOffset": 0,
      "componentType": 5126,
      "count": 1863,
      "type": "VEC3"
    },
    {
      "bufferView": 2,
      "byteOffset": 0,
      "componentType": 5126,
      "count": 1863,
      "type": "VEC2"
    },
    {
      "bufferView": 3,
      "byteOffset": 0,
      "componentType": 5123,
      "count": 1863,
      "type": "SCALAR"
    }
  ],
  "bufferViews": [
    {
      "buffer": 0,
      "byteOffset": 0,
      "byteLength": 22356,
      "target": 34962
    },
    {
      "buffer": 0,
      "byteOffset": 22356,
      "byteLength": 22356,
      "target": 34962
    },
    {
      "buffer": 0,
      "byteOffset": 44712,
      "byteLength": 14904,
      "target": 34962
    },
    {
      "buffer": 0,
      "byteOffset": 59616,
      "byteLength": 3726,
      "target": 34963
    },
    {
      "buffer": 0,
      "byteOffset": 63342,
      "byteLength": 20206
    }
  ],
  "buffers": [
    {
      "uri": "data:application/octet-stream;base64,",
      "byteLength": 83548
    }
  ],
  "materials": [
    {
      "pbrMetallicRoughness": {
        "baseColorFactor": [
          1,
          1,
          1,
          1
        ],
        "roughnessFactor": 0.5,
        "metallicFactor": 0.5,
        "baseColorTexture": {
          "index": 0,
          "texCoord": 0
        }
      }
    }
  ],
  "images": [
    {
      "uri": "data:image/png;base64,",
      "mimeType": "image/png"
    }
  ],
  "textures": [
    {
      "source": 0,
      "sampler": 0
    }
  ],
  "samplers": [
    {
      "magFilter": 9729,
      "minFilter": 9987
    }
  ]
}