{
  "asset": {
    "version": "2.0",
    "generator": "SMARTFLOW Extractor"
  },
  "scene": 0,
  "scenes": [
    {
      "nodes": [
        0
      ]
    }
  ],
  "nodes": [
    {
      "mesh": 0,
      "name": "container"
    }
  ],
  "meshes": [
    {
      "primitives": [
        {
          "attributes": {
            "POSITION": 0,
            "NORMAL": 1,
            "TEXCOORD_0": 2
          },
          "indices": 3,
          "material": 0
        }
      ],
      "name": "container"
    }
  ],
  "accessors": [
    {
      "bufferView": 0,
      "byteOffset": 0,
      "componentType": 5126,
      "count": 1902,
      "type": "VEC3",
      "min": [
        -1.8263771763359316,
        -1.195342626039734,
        -5.420931089751733
      ],
      "max": [
        1.8003828296149962,
        2.9657824574142193,
        3.667258988983619
      ]
    },
    {
      "bufferView": 1,
      "byteOffset": 0,
      "componentType": 5126,
      "count": 1902,
      "type": "VEC3"
    },
    {
      "bufferView": 2,
      "byteOffset": 0,
      "componentType": 5126,
      "count": 1902,
      "type": "VEC2"
    },
    {
      "bufferView": 3,
      "byteOffset": 0,
      "componentType": 5123,
      "count": 1902,
      "type": "SCALAR"
    }
  ],
  "bufferViews": [
    {
      "buffer": 0,
      "byteOffset": 0,
      "byteLength": 22824,
      "target": 34962
    },
    {
      "buffer": 0,
      "byteOffset": 22824,
      "byteLength": 22824,
      "target": 34962
    },
    {
      "buffer": 0,
      "byteOffset": 45648,
      "byteLength": 15216,
      "target": 34962
    },
    {
      "buffer": 0,
      "byteOffset": 60864,
      "byteLength": 3804,
      "target": 34963
    },
    {
      "buffer": 0,
      "byteOffset": 64668,
      "byteLength": 17094
    }
  ],
  "buffers": [
    {
      "uri": "data:application/octet-stream;base64,",
      "byteLength": 81762
    }
  ],
  "materials": [
    {
      "pbrMetallicRoughness": {
        "baseColorFactor": [
          1,
          1,
          1,
          1
        ],
        "roughnessFactor": 0.5,
        "metallicFactor": 0.5,
        "baseColorTexture": {
          "index": 0,
          "texCoord": 0
        }
      }
    }
  ],
  "images": [
    {
      "uri": "data:image/png;base64,",
      "mimeType": "image/png"
    }
  ],
  "textures": [
    {
      "source": 0,
      "sampler": 0
    }
  ],
  "samplers": [
    {
      "magFilter": 9729,
      "minFilter": 9987
    }
  ]
}