{
  "asset": {
    "version": "2.0",
    "generator": "SMARTFLOW Extractor"
  },
  "scene": 0,
  "scenes": [
    {
      "nodes": [
        0
      ]
    }
  ],
  "nodes": [
    {
      "mesh": 0,
      "name": "pickup"
    }
  ],
  "meshes": [
    {
      "primitives": [
        {
          "attributes": {
            "POSITION": 0,
            "NORMAL": 1,
            "TEXCOORD_0": 2
          },
          "indices": 3,
          "material": 0
        }
      ],
      "name": "pickup"
    }
  ],
  "accessors": [
    {
      "bufferView": 0,
      "byteOffset": 0,
      "componentType": 5126,
      "count": 2055,
      "type": "VEC3",
      "min": [
        -1.5826477015395426,
        -1.104209312366734,
        -2.789238244527155
      ],
      "max": [
        1.518132308683846,
        1.1707756625130374,
        3.1765017209116877
      ]
    },
    {
      "bufferView": 1,
      "byteOffset": 0,
      "componentType": 5126,
      "count": 2055,
      "type": "VEC3"
    },
    {
      "bufferView": 2,
      "byteOffset": 0,
      "componentType": 5126,
      "count": 2055,
      "type": "VEC2"
    },
    {
      "bufferView": 3,
      "byteOffset": 0,
      "componentType": 5123,
      "count": 2055,
      "type": "SCALAR"
    }
  ],
  "bufferViews": [
    {
      "buffer": 0,
      "byteOffset": 0,
      "byteLength": 24660,
      "target": 34962
    },
    {
      "buffer": 0,
      "byteOffset": 24660,
      "byteLength": 24660,
      "target": 34962
    },
    {
      "buffer": 0,
      "byteOffset": 49320,
      "byteLength": 16440,
      "target": 34962
    },
    {
      "buffer": 0,
      "byteOffset": 65760,
      "byteLength": 4110,
      "target": 34963
    },
    {
      "buffer": 0,
      "byteOffset": 69870,
      "byteLength": 12689
    }
  ],
  "buffers": [
    {
      "uri": "data:application/octet-stream;base64,",
      "byteLength": 82559
    }
  ],
  "materials": [
    {
      "pbrMetallicRoughness": {
        "baseColorFactor": [
          1,
          1,
          1,
          1
        ],
        "roughnessFactor": 0.5,
        "metallicFactor": 0.5,
        "baseColorTexture": {
          "index": 0,
          "texCoord": 0
        }
      }
    }
  ],
  "images": [
    {
      "uri": "data:image/png;base64,",
      "mimeType": "image/png"
    }
  ],
  "textures": [
    {
      "source": 0,
      "sampler": 0
    }
  ],
  "samplers": [
    {
      "magFilter": 9729,
      "minFilter": 9987
    }
  ]
}