{
  "asset": {
    "version": "2.0",
    "generator": "SMARTFLOW Extractor"
  },
  "scene": 0,
  "scenes": [
    {
      "nodes": [
        0
      ]
    }
  ],
  "nodes": [
    {
      "mesh": 0,
      "name": "taxi"
    }
  ],
  "meshes": [
    {
      "primitives": [
        {
          "attributes": {
            "POSITION": 0,
            "NORMAL": 1,
            "TEXCOORD_0": 2
          },
          "indices": 3,
          "material": 0
        }
      ],
      "name": "taxi"
    }
  ],
  "accessors": [
    {
      "bufferView": 0,
      "byteOffset": 0,
      "componentType": 5126,
      "count": 2271,
      "type": "VEC3",
      "min": [
        -1.4786538097311137,
        -0.8902462674153877,
        -3.342995689321299
      ],
      "max": [
        1.4794062164377095,
        1.5433906226686294,
        2.977544262003164
      ]
    },
    {
      "bufferView": 1,
      "byteOffset": 0,
      "componentType": 5126,
      "count": 2271,
      "type": "VEC3"
    },
    {
      "bufferView": 2,
      "byteOffset": 0,
      "componentType": 5126,
      "count": 2271,
      "type": "VEC2"
    },
    {
      "bufferView": 3,
      "byteOffset": 0,
      "componentType": 5123,
      "count": 2271,
      "type": "SCALAR"
    }
  ],
  "bufferViews": [
    {
      "buffer": 0,
      "byteOffset": 0,
      "byteLength": 27252,
      "target": 34962
    },
    {
      "buffer": 0,
      "byteOffset": 27252,
      "byteLength": 27252,
      "target": 34962
    },
    {
      "buffer": 0,
      "byteOffset": 54504,
      "byteLength": 18168,
      "target": 34962
    },
    {
      "buffer": 0,
      "byteOffset": 72672,
      "byteLength": 4542,
      "target": 34963
    },
    {
      "buffer": 0,
      "byteOffset": 77214,
      "byteLength": 17552
    }
  ],
  "buffers": [
    {
      "uri": "data:application/octet-stream;base64,",
      "byteLength": 94766
    }
  ],
  "materials": [
    {
      "pbrMetallicRoughness": {
        "baseColorFactor": [
          1,
          1,
          1,
          1
        ],
        "roughnessFactor": 0.5,
        "metallicFactor": 0.5,
        "baseColorTexture": {
          "index": 0,
          "texCoord": 0
        }
      }
    }
  ],
  "images": [
    {
      "uri": "data:image/png;base64,",
      "mimeType": "image/png"
    }
  ],
  "textures": [
    {
      "source": 0,
      "sampler": 0
    }
  ],
  "samplers": [
    {
      "magFilter": 9729,
      "minFilter": 9987
    }
  ]
}