{
  "asset": {
    "version": "2.0",
    "generator": "SMARTFLOW Extractor"
  },
  "scene": 0,
  "scenes": [
    {
      "nodes": [
        0
      ]
    }
  ],
  "nodes": [
    {
      "mesh": 0,
      "name": "truck"
    }
  ],
  "meshes": [
    {
      "primitives": [
        {
          "attributes": {
            "POSITION": 0,
            "NORMAL": 1,
            "TEXCOORD_0": 2
          },
          "indices": 3,
          "material": 0
        }
      ],
      "name": "truck"
    }
  ],
  "accessors": [
    {
      "bufferView": 0,
      "byteOffset": 0,
      "componentType": 5126,
      "count": 1962,
      "type": "VEC3",
      "min": [
        -5.377837113648745,
        -1.1961752671741754,
        -1.7994710409009365
      ],
      "max": [
        3.7225127894579444,
        2.1971387139528185,
        1.8272889650499913
      ]
    },
    {
      "bufferView": 1,
      "byteOffset": 0,
      "componentType": 5126,
      "count": 1962,
      "type": "VEC3"
    },
    {
      "bufferView": 2,
      "byteOffset": 0,
      "componentType": 5126,
      "count": 1962,
      "type": "VEC2"
    },
    {
      "bufferView": 3,
      "byteOffset": 0,
      "componentType": 5123,
      "count": 1962,
      "type": "SCALAR"
    }
  ],
  "bufferViews": [
    {
      "buffer": 0,
      "byteOffset": 0,
      "byteLength": 23544,
      "target": 34962
    },
    {
      "buffer": 0,
      "byteOffset": 23544,
      "byteLength": 23544,
      "target": 34962
    },
    {
      "buffer": 0,
      "byteOffset": 47088,
      "byteLength": 15696,
      "target": 34962
    },
    {
      "buffer": 0,
      "byteOffset": 62784,
      "byteLength": 3924,
      "target": 34963
    },
    {
      "buffer": 0,
      "byteOffset": 66708,
      "byteLength": 14526
    }
  ],
  "buffers": [
    {
      "uri": "data:application/octet-stream;base64,",
      "byteLength": 81234
    }
  ],
  "materials": [
    {
      "pbrMetallicRoughness": {
        "baseColorFactor": [
          1,
          1,
          1,
          1
        ],
        "roughnessFactor": 0.5,
        "metallicFactor": 0.5,
        "baseColorTexture": {
          "index": 0,
          "texCoord": 0
        }
      }
    }
  ],
  "images": [
    {
      "uri": "data:image/png;base64,",
      "mimeType": "image/png"
    }
  ],
  "textures": [
    {
      "source": 0,
      "sampler": 0
    }
  ],
  "samplers": [
    {
      "magFilter": 9729,
      "minFilter": 9987
    }
  ]
}